<svg height="55" viewBox="0 0 143 55" width="143" xmlns="http://www.w3.org/2000/svg" xmlns:xlink="http://www.w3.org/1999/xlink"><mask id="a" fill="#fff"><path d="m.00024034.25228261h54.42291596v54.14989129h-54.42291596z" fill="#fff" fill-rule="evenodd"/></mask><g fill="none" fill-rule="evenodd"><g fill="#292a39"><path d="m72.5591613 27.1322772c0-.88-.0678949-1.7301087-.2024831-2.5527174-.13579-.8214131-.3677143-1.5507609-.6957732-2.1874457-.3286596-.6378804-.7696764-1.1472282-1.3236512-1.5292391-.5545756-.3826087-1.2437395-.5733152-2.0680925-.5733152-.4121764 0-.8177437.0603804-1.2179033.1817391-.398958.1213587-.8051261.3126631-1.2179034.5733152-.4121764.2600544-.8435798.605-1.2942101 1.0318479-.4512311.42625-.9276974.9523369-1.43 1.5764673v6.8421196c.8766261 1.05875 1.7063866 1.8664131 2.4928866 2.4271739.7858992.5619565 1.6102521.8417392 2.4736597.8417392.7991176 0 1.4852773-.1913044 2.0584789-.5739131.5732017-.381413 1.0370505-.8919565 1.3915463-1.5280435.3538949-.6366847.6146596-1.3510869.7822941-2.1408152.1676344-.7903261.2511512-1.5872282.2511512-2.388913m3.2847942-.3640761c0 1.5035326-.1634286 2.8546196-.4890841 4.0520652-.3268571 1.1974457-.8069285 2.2143478-1.4414159 3.048913-.6338866.8339674-1.4179832 1.4778261-2.35229 1.9303805-.9343067.4507609-2.0050042.6779348-3.2084873.6779348-.511916 0-.985979-.0508153-1.4221891-.1536413-.4350084-.1004348-.8604034-.2594566-1.2767857-.4764674-.4157816-.2170109-.8285589-.4908152-1.2389328-.8220109-.410374-.3311957-.8453824-.7203804-1.3056261-1.1657609v8.5997283c0 .1028261-.0264369.1913043-.0763067.2678261-.0516723.0765217-.1351891.1404891-.2505504.1913043-.1153613.0502174-.2757857.0890761-.4806723.1147826-.2042857.0251087-.4668529.0382609-.7871008.0382609-.3070294 0-.5641891-.0131522-.7684748-.0382609-.2048866-.0257065-.3677143-.0645652-.4896849-.1147826-.1219706-.0508152-.2048865-.1147826-.2493487-.1913043-.045063-.0765218-.0672941-.165-.0672941-.2678261v-24.0236413c0-.1147826.0192269-.2074457.0576806-.2773913.0384538-.0705435.1147605-.1303261.2307227-.1811413.1147605-.0508152.2619664-.086087.4410168-.1052174.1790505-.0197283.3971555-.0292935.6537143-.0292935.2691765 0 .4890841.0095652.6627269.0292935.1724412.0191304.316042.0544022.4314034.1052174.1153613.0508152.1958739.1105978.2409369.1811413.0438614.0699456.0660925.1626087.0660925.2773913v2.3123913c.5263361-.5344565 1.031042-.9995652 1.5183235-1.3953261.4860798-.3945652.9757647-.7221739 1.4690546-.9840217.4926891-.2606522.9991975-.4591305 1.5171219-.5918479.5197269-.1345108 1.0670924-.2008695 1.6426975-.2008695 1.2557563 0 2.3252521.2415217 3.2072857.7257608.8850378.4842392 1.6042437 1.1466305 2.1624243 1.9877718.5563782.8411413.9625463 1.8191848 1.2191051 2.9335326.255958 1.1149456.383937 2.2968478.383937 3.5451087"/><path d="m90.2047004 25.3543424c.0384538-1.6565761-.3322647-2.95625-1.1115546-3.8990217-.7798908-.9427718-1.9359076-1.4144566-3.4686513-1.4144566-.7865 0-1.4756638.1470652-2.0674916.4394022-.5936302.2935326-1.0887226.6809239-1.4888823 1.165163-.3995588.4854348-.7089916 1.048587-.9276975 1.6924457-.2193067.6432609-.3418781 1.3152174-.3671134 2.0164674zm3.1892605.9361956c0 .4973913-.1261764.8507066-.3767269 1.0605435-.2505504.2104348-.5371512.3156522-.8592016.3156522h-11.3847227c0 .9553261.0961344 1.8155978.289605 2.5802174.1922689.7634239.5143193 1.4204348.9643487 1.9686413.4506303.5476087 1.0358488.9684783 1.7568572 1.2620109.7210084.2923369 1.6024412.4388043 2.6455.4388043.8225504 0 1.5567773-.0663587 2.1996765-.2002717.6435-.1339131 1.1992773-.2833696 1.6691344-.4495652.4698572-.165.8555967-.3156522 1.1584202-.4489674.3034244-.1345109.5311428-.2002718.6855588-.2002718.0907269 0 .1700378.0221196.2415378.0657609.0702983.0454348.1255756.1123913.1634286.2008696.0384538.0896739.0678949.2146195.0871218.3730434.0186261.1590218.0282395.3539131.0282395.5828805 0 .1655978-.0060084.3090761-.0180252.4298369-.0132185.1219565-.0294412.2301631-.0480672.3252174-.0198277.0956522-.0516723.1817391-.0961345.2582609-.0456638.0765217-.1033445.1494565-.173042.22-.0702983.0693478-.278189.1847282-.6248739.34375-.3454832.1596196-.7943109.3150543-1.3440799.4680978-.5515714.1530435-1.1878613.2905435-1.9106722.4107065-.7246135.1213587-1.4960925.1817392-2.3162395.1817392-1.4203866 0-2.6653277-.1966848-3.7354244-.5924457-1.0688949-.395163-1.9689538-.9816304-2.6983739-1.7588043-.7312227-.7765761-1.2821933-1.7516305-1.652311-2.9245653-.3707184-1.1711413-.5563781-2.5341847-.5563781-4.0897282 0-1.4778261.1916681-2.805.575605-3.9851087.383937-1.1771196.9385126-2.1784783 1.6613236-2.9992935.7234117-.8226087 1.5982353-1.4527174 2.6220672-1.8927174 1.0250336-.44 2.1708361-.6588043 3.4386092-.6588043 1.3566975 0 2.5127143.216413 3.4668488.6492391.9535336.4328261 1.7394327 1.0163044 2.3534916 1.7492391.6146596.7329348 1.0658907 1.5926087 1.3542941 2.5802174.2884033.9870109.432605 2.0409783.432605 3.1625z"/><path d="m106.120961 27.8006467h-2.708588c-.871219 0-1.625874.0735326-2.265769.2194022-.641698.1470652-1.1728406.3640761-1.5952313.649837-.4223908.2869565-.7330252.6313043-.9319034 1.0318478-.1976764.4011413-.2980168.8638587-.2980168 1.3869565 0 .8919565.2853992 1.6015761.8555967 2.1300544.5695966.5284782 1.3669118.793913 2.3907438.793913.833365 0 1.604844-.2104348 2.315038-.6313043.711395-.4202718 1.457037-1.0641305 2.23813-1.9309783zm3.149605 7.8554348c0 .1524457-.051071.2672283-.153214.34375-.102744.0765218-.243341.1333152-.42179.1721739-.180252.0382609-.442219.0573913-.788303.0573913-.332865 0-.598437-.0191304-.797315-.0573913-.198878-.0388587-.34308-.0956521-.432004-.1721739-.089525-.0765217-.133987-.1913043-.133987-.34375v-1.7205435c-.756458.8028805-1.597635 1.4276087-2.526534 1.8729892-.928298.4459782-1.910672.6689674-2.948324.6689674-.910273 0-1.7316215-.1177718-2.4682517-.3533153-.7366303-.2355434-1.3633067-.5763043-1.881832-1.0222826-.5197268-.446576-.9228907-.9935869-1.2106932-1.6440217-.2890042-.6492391-.4326051-1.38875-.4326051-2.217337 0-.9684782.199479-1.8096195.594832-2.522826.3977563-.7126087.9679537-1.3056522 1.7099916-1.7767392.7432395-.4710869 1.65171-.825 2.7284164-1.0617391 1.075504-.2355435 2.285596-.3533152 3.629676-.3533152h2.382332v-1.3385326c0-.6611957-.070298-1.2476631-.210895-1.7576087-.142399-.5093479-.368315-.9338044-.682555-1.2703805-.313638-.3383695-.719806-.5918478-1.219706-.7652174-.499899-.1709782-1.113958-.257663-1.843979-.257663-.781092 0-1.482273.092663-2.102941.2779891-.6212686.1841305-1.16563.388587-1.6330837.6109783-.4680547.2229891-.8586009.4268478-1.1710379.6115761-.3148403.1847282-.5479663.2779891-.7011806.2779891-.1039454 0-.1928698-.0263043-.2691765-.0777174-.0769076-.0502174-.1448025-.1267391-.2024832-.2283695-.0576807-.1028261-.0985378-.2331522-.1243739-.392174-.0258362-.1596195-.0390547-.3347826-.0390547-.5260869 0-.3186413.0222311-.5703261.067895-.7544565.045063-.1847283.1532143-.3598913.3256555-.526087.1742437-.165.4704579-.3598913.8940504-.5822826.4223907-.2229891.9090714-.4268478 1.460042-.6121739.5509706-.1847283 1.1524118-.3377718 1.8055256-.4591304.653113-.1201631 1.312836-.1805435 1.977966-.1805435 1.242538 0 2.298815.1398913 3.170034.4196739.871218.2797826 1.575403.6916848 2.112554 1.2333152.538353.5410326.928899 1.2129891 1.17224 2.0158696.242138.8028804.364109 1.7390761.364109 2.8097826z"/><path d="m123.228447 19.5637391c0 .2803805-.006609.5159239-.019226.7072283-.013219.1913043-.037853.340163-.076908.4483696-.037252.1088043-.086521.1919021-.143601.2486956-.058281.0573913-.138794.086087-.240937.086087-.101542 0-.226517-.0286957-.373122-.086087-.148407-.0567935-.313638-.1147826-.5005-.1721739-.185659-.0573913-.392949-.1111957-.623672-.1626087-.230122-.0502174-.480071-.0765217-.749248-.0765217-.320248 0-.634487.0639674-.942117.1913043-.306429.1279348-.630883.3383696-.969156.6313044-.340076.2929347-.695773.680326-1.065891 1.1645652-.371319.4848369-.781693 1.0778804-1.22992 1.7779348v11.3144565c0 .1028261-.025836.188913-.076307.2588587-.051672.0699456-.135189.1309239-.249348.1811413-.116563.051413-.276988.0884782-.480072.1147826-.206088.0245109-.468054.0382609-.788302.0382609-.307631 0-.564189-.01375-.767874-.0382609-.205488-.0263044-.368315-.0633696-.490286-.1147826-.121971-.0502174-.205487-.1111957-.249949-.1811413-.044463-.0699457-.066694-.1560326-.066694-.2588587v-17.2006522c0-.1016304.018626-.1877174.057681-.2582609.038454-.0693478.11476-.133913.230723-.1913043.115361-.0573913.261365-.0950544.441016-.1141848.179652-.0197283.416383-.0292935.710795-.0292935.282394 0 .515521.0095652.70118.0292935.185059.0191304.330462.0567935.432605.1141848.101542.0573913.174845.1219565.220509.1913043.045063.0705435.067294.1566305.067294.2582609v2.5036957c.473462-.6886957.918685-1.2482609 1.335668-1.6822827.41518-.432826.808731-.7735869 1.18005-1.0222826.37192-.2486956.740236-.4208695 1.104946-.5165217.365911-.0944565.733025-.1422826 1.103743-.1422826.167034 0 .355097.0089674.567794.0275.211496.0203261.432005.055.662727.1052174.230723.051413.437412.1088043.623673.1727717.18626.0639674.317243.127337.394151.1913044.076907.0627717.127378.12375.152613.1811413.026437.0567935.048068.1303261.068496.22.018626.0884782.031845.2194021.037252.3909782.007811.1727718.010214.4053261.010214.6988587"/><path d="m128.04238 35.6362935c0 .1028261-.025235.188913-.076306.2588587-.051673.0699456-.13519.1309239-.24995.1811413-.115962.051413-.276387.0884782-.480071.1147826-.205488.0245109-.468055.0382609-.788303.0382609-.307029 0-.563588-.01375-.767874-.0382609-.205487-.0263044-.368315-.0633696-.490286-.1147826-.121369-.0502174-.204285-.1111957-.249949-.1811413-.043862-.0699457-.065492-.1560326-.065492-.2588587v-25.5343478c0-.1016305.02163-.19010874.065492-.26722831.045664-.07592391.12858-.1398913.249949-.19130435.121971-.05021739.284799-.08847826.490286-.11418478.204286-.02570652.460845-.03885869.767874-.03885869.320248 0 .582815.01315217.788303.03885869.203684.02570652.364109.06396739.480071.11418478.11476.05141305.198277.11538044.24995.19130435.051071.07711957.076306.16559781.076306.26722831z"/><path d="m142.787002 30.9538804c0 .8794022-.164029 1.66375-.490286 2.3506522-.326857.6880978-.791306 1.268587-1.392748 1.7396739-.602642.4716848-1.318844.8291848-2.151609 1.0701087-.832164.2421196-1.747243.3634783-2.746441.3634783-.61466 0-1.200479-.0478261-1.757458-.1440761-.556979-.0956522-1.056277-.2170109-1.498496-.3628804-.441617-.1452718-.81534-.2983153-1.123571-.4585327-.308231-.1590217-.531744-.3013043-.67174-.4298369-.141197-.1279348-.243941-.3054891-.308231-.5344565-.063689-.2295652-.095533-.5422283-.095533-.9367935 0-.2427174.012617-.4459783.038453-.6121739.025837-.165.05708-.2989131.096135-.4017392.038454-.1016304.091928-.1745652.162828-.2188043.070298-.044837.150811-.0669565.239735-.0669565.141197 0 .349088.0848913.624273.2582608.275786.1709783.615261.3598914 1.019025.5631522.403164.2038587.87903.3915761 1.43.56375.550971.1727718 1.184257.2588587 1.902261.2588587.538353 0 1.024433-.0585869 1.459441-.1727717.43621-.1141848.812937-.2833696 1.133185-.5063587.320248-.223587.567193-.5057609.739634-.8501087.173042-.3443478.259563-.7520652.259563-1.2243478 0-.4842392-.123773-.8907609-.373122-1.2219566-.249949-.3317934-.580411-.6247282-.990184-.88-.409774-.254076-.871219-.4806521-1.383135-.6785326-.513118-.1972826-1.040055-.4041304-1.584416-.6205434-.544962-.2170109-1.076105-.4615218-1.593428-.7365218-.520328-.2738043-.984177-.6073913-1.39395-1.0031522-.410374-.3945652-.739634-.8668478-.989584-1.4138587-.249349-.5482065-.374324-1.2046195-.374324-1.9692391 0-.6749456.131584-1.3217935.393551-1.9399456.261966-.6181522.656117-1.1597826 1.181853-1.6248913.524533-.4633153 1.182454-.8375544 1.968353-1.117337.787701-.2797826 1.706987-.4196739 2.756054-.4196739.462047 0 .922891.0370652 1.383135.1135869.460844.0765218.877828.1715761 1.249147.2869566.371319.1147826.687962.2391304.95113.3730434.262567.1333153.460244.251087.595433.3527174.133987.1028261.223512.1907066.267975.2690218.045063.0753261.077508.1608152.096134.2570652.019828.0956522.039055.2134239.057681.3533152.019828.1398913.029441.3126631.029441.5153261 0 .2176087-.009613.4053261-.029441.5649456-.018626.158424-.050471.2899457-.094933.3915761-.045664.1022283-.099739.1757609-.164029.22-.064891.0442392-.133988.0663587-.211496.0663587-.114761 0-.280593-.0699456-.499299-.2098369-.216903-.1398913-.499298-.2893479-.845382-.4495652-.344882-.158424-.752252-.3090761-1.219105-.4489674-.467454-.1404892-1.002202-.209837-1.603643-.209837-.538353 0-1.011815.0609783-1.422189.1805435-.409172.1219565-.745643.2941304-1.00821.5165217-.263168.223587-.460844.4878261-.596034.7939131-.133386.3054891-.201281.6372826-.201281.9935869 0 .4973913.127979.9146739.383937 1.2518479.256559.3371739.589424.6336956.999197.8889673.409774.254674.877227.4842392 1.402963.6875.524533.2032609 1.05868.4154892 1.603042.6307066.544361.2170108 1.082113.4585326 1.613256.7263587.531143.267826 1.002202.5930434 1.412576.9744565.409773.3826087.740235.8417391.988983 1.3767935.249348.5350543.374924 1.1723369.374924 1.9106521"/></g><path d="m54.4231563 27.3275272c0 14.9528261-12.1832395 27.0749456-27.211458 27.0749456-15.0288193 0-27.21145796-12.1221195-27.21145796-27.0749456 0-14.9534239 12.18263866-27.0755435 27.21145796-27.0755435 15.0282185 0 27.211458 12.1221196 27.211458 27.0755435" fill="#ffcd06" mask="url(#a)" transform="translate(0 .345783)"/><path d="m32.7121513 37.4922446h-3.1003362v-8.8675544h3.1003362.918084c1.0532731 0 1.9274958.1010326 2.6232689.3019022.696374.2014674 1.2731807.4961956 1.7352269.8847826.4620462.3891848.812937.8680435 1.0532731 1.4389674s.361105 1.2315217.361105 1.9823913c0 .70125-.1237731 1.3170109-.3707184 1.8472826-.2469454.5320652-.5888236.97625-1.0244328 1.3325544-.4350084.3563043-.9391135.625326-1.5117143.8070652-.5713992.1817391-1.2407353.2726087-2.0074076.2726087zm0-19.6774457h.3701176c.9619454 0 1.7352269.0914674 2.3204454.2720109.5846176.1817391 1.0592815.4435869 1.4227899.7879348.3641092.3425543.6302815.7610326.7991176 1.2536413.169437.4932065.2535547 1.0432065.2535547 1.6529891 0 .5440217-.0805126 1.0725-.2433404 1.584837-.1628277.5117391-.4193865.9595108-.7702773 1.3415217-.3508907.3826087-.7931092.6875-1.3260546.9140761-.5323445.2265761-1.234126.340163-2.1047437.340163h-.7216092-3.1003362v-8.1471739zm9.8375588 12.8717935c-.2613656-.7132065-.6158614-1.3349457-1.0658908-1.8664131-.4494285-.5320652-.9739622-.9696739-1.573-1.3134239-.5990378-.3425543-1.2443403-.5786956-1.934105-.7090217.5467647-.23375 1.0322437-.5314674 1.4558361-.8943478.4229916-.3622826.7744832-.7741848 1.0550757-1.2351087.2793907-.4591305.4908865-.9619022.6350882-1.5065218.143-.5446195.2145-1.1149456.2145-1.7115761 0-.9977717-.1628277-1.8927173-.4884832-2.6830434s-.8105336-1.4580979-1.4558361-2.0027174c-.6453026-.5434239-1.4492269-.9583152-2.4129748-1.2440761-.9637479-.2851631-2.201479-.4274457-3.7137941-.4274457h-2.6455-3.0228278-.0757059c-.2998193 0-.5834159.1004348-.8507899.3013044-.2667731.2008696-.4001596.5541848-.4001596 1.0593478v1.36125 8.1471739h-2.2044832-3.0997353c-.8712185 0-1.5723992-.1135869-2.1059454-.340163-.5323445-.2265761-.9739622-.5314674-1.3254538-.9140761-.3508907-.3820109-.6080504-.8297826-.7702773-1.3415217-.1628277-.512337-.2439412-1.0408153-.2439412-1.584837 0-.6097826.0847185-1.1597826.2535546-1.6529891.1688362-.4926087.4362101-.911087.7997185-1.2536413.3641093-.3443479.8381723-.6061957 1.4227899-.7879348.5852185-.1805435 1.3578992-.2720109 2.3210463-.2720109h3.0985336.0811134v-2.7219022h-.2649706-3.0997353c-1.5111134 0-2.7488445.1422826-3.7131932.4274457-.9631471.2857609-1.7682731.7006522-2.412374 1.2440761-.6459033.5446195-1.1313823 1.2123913-1.4570378 2.0027174-.3250546.7903261-.4884832 1.6852717-.4884832 2.6830434 0 .5966305.0715 1.1669566.2145 1.7115761.1448025.5446196.3556975 1.0473913.6350882 1.5065218.2805925.4609239.6326849.8728261 1.0556765 1.2351087.4235925.3628804.9084706.6605978 1.4558361.8943478-.6903655.1303261-1.335668.3664674-1.934105.7090217-.5990378.34375-1.1235714.7813587-1.5736008 1.3134239-.4494286.5314674-.8045252 1.1532066-1.06529 1.8664131-.2601638.7132065-.3899453 1.4969565-.3899453 2.3524456 0 .790924.1009411 1.519674.3028235 2.1880435.2018824.6677718.485479 1.2667935.8507899 1.7988587.3629076.5308696.8033235.9971739 1.3182437 1.3995109.5143193.4017391 1.0941303.7383152 1.7388319 1.0109239.6447017.2726087 1.336269.4758696 2.0710967.6121739.7366302.1363044 1.5802101.2038587 2.5319412.2038587h3.0991344 1.1247731v-2.760163h-1.4858781-3.1003362c-.7666722 0-1.4360084-.0908696-2.0086092-.2726087-.5726008-.1817392-1.076105-.4507609-1.5111134-.8070652-.4362101-.3563044-.7774874-.8004892-1.0250337-1.3325544-.2463445-.5302717-.3707185-1.1460326-.3707185-1.8472826 0-.7508696.1213698-1.4114674.3623068-1.9823913.2397353-.5709239.590626-1.0497826 1.0526722-1.4389674.4614454-.388587 1.0400547-.6833152 1.7358278-.8847826.6957731-.2008696 1.5693949-.3019022 2.622668-.3019022h3.0991345 2.4021597v8.8675544 1.3995108c0 .5051631.1333865.8584783.4001596 1.0599457.267374.2014674.5509706.3007065.8507899.3007065h.0757059 3.0228278 3.5059033c.9505294 0 1.7941093-.0675543 2.5307395-.2038587.7360294-.1363043 1.4269958-.3395652 2.0710966-.6121739.6447017-.2726087 1.2245127-.6091848 1.7394328-1.0109239.5149202-.402337.9547353-.8686413 1.3194454-1.3995109.3641092-.5320652.6477059-1.1310869.8501891-1.7988587.2018823-.6683695.3028235-1.3971195.3028235-2.1880435 0-.8554891-.1303824-1.6392391-.3905462-2.3524456z" fill="#fff"/></g></svg>